<?xml version="1.0" standalone="no"?>
<!DOCTYPE svg PUBLIC "-//W3C//DTD SVG 20010904//EN"
 "http://www.w3.org/TR/2001/REC-SVG-20010904/DTD/svg10.dtd">
<svg version="1.0" xmlns="http://www.w3.org/2000/svg"
 width="577.000000pt" height="577.000000pt" viewBox="0 0 577.000000 577.000000"
 preserveAspectRatio="xMidYMid meet">
<metadata>
Created by potrace 1.14, written by Peter Selinger 2001-2017
</metadata>
<g transform="translate(0.000000,577.000000) scale(0.100000,-0.100000)"
fill="#000000" stroke="none">
<path d="M2862 3542 c-9 -151 -86 -286 -136 -237 -7 8 -16 12 -19 9 -2 -3 -17
6 -32 20 -16 15 -32 26 -37 26 -5 0 -8 27 -7 59 3 88 -43 149 -53 71 -6 -44
-17 -54 -39 -34 -10 9 -19 23 -19 30 0 40 -56 13 -62 -30 -2 -14 -14 -25 -37
-32 -44 -14 -70 -64 -60 -114 4 -19 12 -36 18 -38 6 -2 11 -14 11 -26 0 -28
18 -46 46 -46 14 0 24 -8 28 -23 3 -13 17 -36 31 -53 14 -16 28 -37 31 -46 8
-27 45 -22 90 11 38 29 79 33 94 10 8 -12 135 -15 205 -5 40 6 64 15 73 28 7
10 23 18 36 18 26 0 41 25 56 93 7 34 7 54 -1 70 -15 29 -50 67 -61 67 -5 0
-31 -18 -57 -40 -75 -63 -92 -52 -62 38 19 56 31 104 36 147 3 26 -32 75 -53
75 -13 0 -18 -11 -20 -48z"/>
<path d="M4728 3345 c-2 -1 -25 -5 -53 -8 -53 -5 -105 -25 -105 -39 0 -4 -3
-7 -7 -6 -5 1 -18 -3 -29 -10 -12 -6 -24 -8 -28 -5 -3 3 -6 1 -6 -6 0 -7 -4
-10 -9 -7 -11 7 -96 -75 -116 -114 -9 -17 -33 -54 -54 -82 -34 -44 -39 -57
-37 -99 0 -27 4 -49 8 -49 4 0 10 -15 13 -33 5 -23 21 -44 55 -72 27 -22 49
-45 50 -51 1 -28 290 -74 290 -46 0 6 18 16 40 22 21 6 46 17 55 26 8 8 15 12
15 8 0 -4 20 13 45 38 25 25 45 50 45 54 0 4 10 18 22 31 16 17 22 38 25 87 3
56 1 67 -22 94 -14 16 -25 34 -25 40 0 5 -10 12 -22 16 -36 9 -98 7 -98 -4 0
-5 -8 -10 -17 -10 -10 0 -42 -9 -72 -19 -67 -22 -54 -33 32 -30 48 2 62 0 62
-12 0 -18 -58 -38 -115 -39 -56 0 -90 -9 -90 -22 0 -7 22 -8 63 -3 208 24 265
-3 183 -87 -96 -97 -102 -100 -187 -95 -86 6 -145 28 -155 60 -9 28 -8 96 2
122 6 16 5 18 -7 8 -20 -19 -31 -16 -27 10 2 15 19 30 58 49 30 15 60 32 67
38 7 5 17 10 23 10 5 0 10 5 10 10 0 6 9 10 19 10 11 0 32 5 48 12 15 6 35 12
43 14 8 2 16 8 18 13 2 6 10 11 19 11 8 0 33 19 54 42 42 42 46 72 16 103 -11
10 -91 27 -99 20z"/>
<path d="M4135 3298 c-9 -6 -28 -8 -42 -5 -19 3 -32 -2 -49 -20 -17 -19 -28
-22 -51 -17 -15 4 -33 10 -38 15 -6 4 -31 11 -55 14 -25 3 -39 2 -32 -1 7 -3
24 -27 37 -52 31 -59 45 -81 68 -106 9 -11 17 -25 17 -32 0 -26 33 -37 130
-41 88 -5 100 -3 100 11 0 10 12 21 28 27 19 6 31 20 39 47 10 33 9 39 -8 58
-10 11 -19 26 -19 33 0 7 -4 10 -9 7 -5 -3 -16 5 -25 18 -21 33 -69 56 -91 44z"/>
<path d="M5244 3120 c-1 -70 -6 -90 -38 -157 -21 -43 -45 -89 -54 -103 -9 -14
-17 -30 -18 -36 -3 -16 -35 -64 -43 -64 -3 0 -18 -11 -33 -24 -14 -14 -29 -22
-32 -19 -3 4 -6 1 -6 -6 0 -7 -4 -10 -8 -7 -5 3 -16 -3 -25 -12 -24 -26 -47
-43 -47 -36 0 3 -6 2 -12 -4 -7 -5 -24 -8 -37 -6 -14 3 -28 -1 -32 -8 -4 -7
-20 -14 -36 -15 -137 -15 -254 2 -326 47 -27 17 -53 30 -59 30 -5 0 -24 10
-41 22 -36 26 -49 28 -59 13 -13 -18 -9 -41 15 -76 12 -19 22 -47 21 -64 -1
-16 10 -51 24 -77 19 -36 32 -49 56 -54 17 -3 45 -14 61 -22 18 -10 84 -21
160 -29 72 -7 150 -17 175 -22 25 -6 70 -15 100 -20 30 -6 67 -20 82 -31 15
-11 32 -20 37 -20 6 0 17 -13 25 -28 8 -16 21 -34 28 -40 8 -6 15 -28 16 -49
2 -33 -2 -41 -25 -55 -16 -9 -46 -19 -68 -23 -66 -11 -75 -15 -75 -36 0 -35
-74 -20 -133 28 -19 15 -42 23 -68 23 -37 0 -51 -12 -29 -25 6 -3 10 -16 10
-29 0 -40 133 -116 203 -116 13 0 32 -9 44 -19 48 -45 134 -66 173 -41 19 12
4 40 -28 55 -27 12 -28 27 -4 48 24 22 27 21 55 -4 12 -11 25 -23 30 -27 4 -4
20 -22 35 -41 27 -31 30 -32 45 -16 9 9 17 14 17 10 0 -3 9 -1 20 5 24 13 26
52 4 75 -13 12 -19 13 -31 4 -11 -10 -17 -9 -29 3 -13 13 -14 19 -2 37 7 11
17 21 23 21 26 0 63 74 63 125 1 55 -47 128 -111 171 -23 15 -52 37 -64 48
-13 11 -23 16 -23 12 0 -5 -7 -3 -15 4 -18 15 -164 52 -177 44 -4 -3 -8 4 -8
15 0 12 3 21 8 22 4 0 21 3 37 5 17 3 36 6 43 6 6 1 12 6 12 11 0 6 3 7 6 4 4
-4 19 2 33 12 14 10 38 21 52 24 16 4 39 27 64 64 21 32 44 63 51 68 6 6 14
26 17 45 3 19 10 58 17 85 7 28 11 70 10 95 -1 25 -3 68 -4 95 -2 61 -15 125
-26 125 -4 0 -10 9 -13 20 -3 11 -11 20 -19 20 -10 0 -13 -20 -14 -80z m-317
-1092 c-3 -8 -6 -5 -6 6 -1 11 2 17 5 13 3 -3 4 -12 1 -19z"/>
<path d="M3858 3054 c-30 -16 -34 -35 -29 -122 4 -64 25 -106 73 -143 23 -19
45 -33 47 -31 3 2 7 -1 9 -7 2 -6 -17 -20 -43 -31 -46 -20 -47 -21 -32 -43 9
-14 26 -23 48 -25 45 -4 67 -44 43 -79 -8 -13 -22 -27 -30 -30 -28 -11 -8 -98
30 -124 27 -20 -90 -139 -137 -139 -10 0 -27 -5 -37 -10 -19 -10 -19 -11 -2
-31 9 -11 34 -36 55 -56 20 -20 37 -42 37 -49 0 -11 48 -44 63 -44 2 0 24 16
48 35 24 19 49 35 55 35 6 0 20 11 32 25 12 14 26 25 31 25 5 0 13 9 16 20 7
23 55 29 55 7 0 -16 67 -50 81 -41 16 10 69 -7 69 -22 0 -15 -11 -17 -73 -16
-20 0 -36 -2 -34 -6 26 -56 31 -62 63 -62 18 0 35 4 38 8 2 4 27 7 55 6 36 -2
51 1 51 11 0 7 6 18 14 24 12 10 13 33 3 86 -2 12 -13 21 -28 23 -54 6 -112
36 -167 87 -57 53 -58 55 -56 104 2 27 8 60 15 73 7 13 14 28 15 33 1 6 8 24
15 40 18 43 19 55 7 75 -9 14 -17 15 -49 6 -22 -5 -39 -14 -39 -18 0 -13 -38
-9 -47 5 -18 29 6 77 40 77 22 0 46 26 47 51 0 9 7 23 16 30 24 20 10 156 -19
182 -21 18 -22 18 -40 -7 -16 -22 -21 -24 -45 -14 -15 7 -33 18 -39 27 -15 17
-45 22 -85 15 l-28 -6 16 -36 c9 -20 17 -43 18 -51 2 -8 18 -19 37 -25 23 -7
35 -18 37 -33 4 -27 -24 -83 -42 -83 -20 0 -44 33 -40 55 2 11 -5 31 -14 45
-9 14 -15 29 -14 34 2 4 -1 13 -6 20 -5 6 -14 31 -21 56 -23 82 -35 91 -83 64z"/>
<path d="M2955 3034 c-70 -37 -77 -44 -61 -59 8 -8 17 -15 21 -15 3 0 18 -11
33 -25 15 -14 32 -25 39 -25 7 0 13 -5 13 -12 0 -8 6 -6 17 5 20 20 21 110 2
133 -14 18 -26 17 -64 -2z"/>
<path d="M2635 3000 c-48 -15 -114 -86 -115 -122 -1 -16 -85 -108 -99 -108 -5
0 -15 -16 -21 -35 -6 -19 -15 -35 -19 -35 -4 0 -8 -15 -9 -34 -2 -24 3 -39 16
-48 10 -7 21 -21 25 -30 4 -11 17 -18 32 -18 14 0 25 -5 25 -11 0 -8 24 -9 79
-4 80 7 121 2 121 -16 0 -5 -8 -13 -17 -16 -10 -4 -24 -15 -31 -25 -17 -24
-36 -23 -53 2 -14 20 -15 20 -46 3 -17 -10 -50 -28 -72 -41 -22 -12 -45 -31
-50 -41 -12 -21 -82 -65 -121 -75 -30 -8 -83 -53 -76 -65 16 -26 170 -42 252
-26 45 8 47 6 58 -57 2 -14 9 -36 16 -47 6 -12 8 -21 5 -21 -4 0 3 -13 14 -28
12 -17 37 -34 62 -41 23 -7 51 -21 62 -32 11 -10 27 -19 34 -19 7 0 13 -4 13
-9 0 -5 14 -7 32 -4 17 2 59 5 93 6 51 2 68 7 98 30 20 15 37 32 37 37 0 10
15 30 59 78 85 94 74 217 -31 324 -70 72 -127 107 -185 113 -26 3 -50 10 -54
17 -11 18 14 52 40 56 14 2 26 14 33 33 10 28 12 29 72 29 l62 0 13 36 c16 44
7 103 -17 110 -31 10 -102 49 -102 56 0 5 -9 8 -20 8 -11 0 -20 5 -20 10 0 6
-9 10 -20 10 -11 0 -20 7 -20 15 0 8 -8 15 -18 15 -10 0 -22 3 -26 7 -16 16
-77 23 -111 13z m153 -143 c2 -10 -3 -17 -13 -17 -8 0 -18 -7 -21 -15 -7 -18
-30 -20 -40 -3 -8 13 43 61 60 55 6 -2 12 -11 14 -20z m-48 -472 c0 -9 -12
-27 -27 -41 -26 -22 -27 -25 -10 -38 9 -7 17 -18 17 -25 0 -6 4 -11 8 -11 5 0
15 -11 22 -25 11 -21 11 -27 -3 -42 -14 -16 -39 -20 -94 -14 -17 2 -36 68 -28
98 7 30 82 113 102 113 7 0 13 -7 13 -15z m230 -25 c14 -10 23 -20 20 -22 -3
-3 -18 -14 -34 -26 -23 -18 -26 -23 -12 -28 23 -9 20 -27 -9 -52 -19 -17 -24
-28 -19 -47 5 -19 2 -25 -10 -25 -9 0 -16 -6 -16 -13 0 -8 -20 -18 -46 -24
-37 -9 -47 -8 -51 4 -9 22 26 88 59 113 28 21 30 25 24 70 -5 40 -3 50 11 59
27 16 55 13 83 -9z m-36 -268 c10 -16 -50 -64 -75 -60 -34 5 -34 24 1 36 16 6
30 16 30 21 0 13 37 15 44 3z"/>
<path d="M1593 2957 c-48 -11 -52 -20 -23 -57 21 -27 27 -75 10 -85 -5 -3 -10
-14 -10 -24 0 -10 -7 -24 -16 -32 -13 -10 -17 -10 -25 2 -5 8 -7 19 -4 26 2 7
0 15 -5 18 -6 4 -10 17 -10 30 0 22 -24 45 -48 45 -6 0 -20 -20 -31 -44 -28
-57 -48 -74 -107 -89 -54 -14 -82 -14 -129 1 -45 13 -156 15 -190 2 -17 -6
-57 -14 -90 -16 -32 -3 -64 -9 -71 -15 -21 -17 -110 -22 -180 -9 -111 20 -159
24 -262 21 -50 -1 -64 -4 -68 -18 -3 -10 -10 -27 -15 -38 -13 -28 -20 -62 -25
-120 -2 -27 -6 -56 -9 -63 -3 -8 9 -31 27 -52 18 -21 44 -51 58 -67 21 -26 37
-33 108 -46 l84 -15 14 33 c9 23 22 34 41 38 15 3 51 10 80 16 28 5 61 14 72
20 11 6 30 11 42 11 12 0 31 7 41 17 13 11 50 19 123 26 95 9 109 8 162 -11
71 -25 98 -30 242 -42 108 -8 115 -8 147 13 18 12 35 31 38 43 3 11 17 37 30
57 14 20 28 53 32 74 4 21 10 43 14 48 7 9 15 45 27 110 2 11 6 27 10 35 5 13
8 25 14 57 3 18 -14 73 -23 73 -5 0 -6 5 -2 11 6 10 -13 30 -26 28 -3 -1 -24
-6 -47 -12z"/>
<path d="M2369 2946 c-9 -18 -6 -33 13 -71 l25 -48 21 24 c12 12 22 29 22 36
0 7 5 13 10 13 17 0 11 37 -7 45 -60 24 -74 24 -84 1z"/>
<path d="M4630 2936 c-44 -15 -48 -16 -60 -16 -16 0 -7 -34 10 -42 8 -4 40 -7
70 -7 52 -1 56 1 68 29 7 16 14 33 15 37 3 13 -65 12 -103 -1z"/>
<path d="M3228 2799 c-25 -14 -34 -74 -14 -94 17 -18 13 -35 -9 -35 -7 0 -15
-7 -19 -15 -3 -8 -12 -15 -21 -15 -8 0 -15 -4 -15 -8 0 -11 -62 -7 -115 7 -51
14 -105 14 -105 1 0 -13 86 -100 99 -100 5 0 14 -14 20 -31 11 -31 49 -79 64
-79 5 0 15 -7 23 -15 28 -28 52 -21 110 32 13 12 24 19 24 16 0 -15 35 26 49
57 19 44 21 87 6 125 -6 17 -10 42 -8 57 2 14 -1 29 -7 33 -5 3 -10 15 -10 25
0 21 -25 50 -43 50 -7 0 -20 -5 -29 -11z"/>
<path d="M4524 2356 c-3 -9 1 -28 10 -42 11 -15 15 -37 12 -56 -3 -19 2 -41
12 -57 22 -35 71 -81 86 -81 22 0 54 30 51 47 -4 30 13 42 47 32 17 -4 34 -6
39 -4 6 4 5 46 -1 65 -2 3 -2 8 -2 11 2 13 -102 71 -145 80 -101 22 -103 22
-109 5z"/>
<path d="M4813 2301 c-1 -11 2 -23 7 -26 5 -3 7 -12 4 -19 -3 -8 4 -20 15 -28
11 -8 25 -25 31 -38 17 -37 60 -66 70 -49 27 43 -40 160 -100 174 -21 5 -26 2
-27 -14z"/>
<path d="M4965 2307 c-12 -14 -12 -18 4 -78 12 -45 49 -78 71 -64 12 7 10 94
-1 101 -5 3 -7 9 -4 14 6 9 -33 40 -50 40 -5 -1 -15 -6 -20 -13z"/>
</g>
</svg>
